{
 "asset": {
  "version": "2.0",
  "generator": "OpenECS-examples"
 },
 "scene": 0,
 "scenes": [
  {
   "nodes": [
    0
   ]
  }
 ],
 "nodes": [
  {
   "name": "cube",
   "mesh": 0
  }
 ],
 "meshes": [
  {
   "name": "cube",
   "primitives": [
    {
     "attributes": {
      "POSITION": 0
     },
     "indices": 1,
     "material": 0
    }
   ]
  }
 ],
 "materials": [
  {
   "name": "blue",
   "pbrMetallicRoughness": {
    "baseColorFactor": [
     0.2,
     0.5,
     1.0,
     1.0
    ]
   }
  }
 ],
 "buffers": [
  {
   "byteLength": 168,
   "uri": "data:application/octet-stream;base64,"
  }
 ],
 "bufferViews": [
  {
   "buffer": 0,
   "byteOffset": 0,
   "byteLength": 96
  },
  {
   "buffer": 0,
   "byteOffset": 96,
   "byteLength": 72
  }
 ],
 "accessors": [
  {
   "bufferView": 0,
   "componentType": 5126,
   "count": 8,
   "type": "VEC3",
   "min": [
    -1,
    -1,
    -1
   ],
   "max": [
    1,
    1,
    1
   ]
  },
  {
   "bufferView": 1,
   "componentType": 5123,
   "count": 36,
   "type": "SCALAR"
  }
 ]
}
